/* XPM */
static char *ab741d43a1274ddfdfd3edca454eee4eE2lOiJEcT5v1uFbx[] = {
/* columns rows colors chars-per-pixel */
"32 32 191 2 ",
"   c None",
".  c #3F3D3B",
"X  c #30353C",
"o  c #7A201F",
"O  c #4D3B39",
"+  c #4E3D34",
"@  c #513E3C",
"#  c #503E34",
"$  c #7E2625",
"%  c #5A4A26",
"&  c #5B4C2C",
"*  c #56492A",
"=  c #5A4D32",
"-  c #54413F",
";  c #564D31",
":  c #574F3A",
">  c #6D4424",
",  c #744924",
"<  c #655529",
"1  c #615432",
"2  c #6C5D3C",
"3  c #655437",
"4  c #624E33",
"5  c #646238",
"6  c #71603F",
"7  c #766637",
"8  c #71632B",
"9  c #393D40",
"0  c #3D4248",
"q  c #29567B",
"w  c #35536E",
"e  c #4B4B4B",
"r  c #404042",
"t  c #544442",
"y  c #5A4744",
"u  c #524E4D",
"i  c #5E4A47",
"p  c #4D565C",
"a  c #545354",
"s  c #5C585A",
"d  c #634E4C",
"f  c #624A41",
"g  c #6A524E",
"h  c #6A5E42",
"j  c #7A5947",
"k  c #6E5654",
"l  c #725955",
"z  c #765D5A",
"x  c #7B5956",
"c  c #5D6155",
"v  c #736242",
"b  c #766649",
"n  c #766A48",
"m  c #7D7747",
"M  c #65685E",
"N  c #7A625E",
"B  c #6A6346",
"V  c #6C6A68",
"C  c #7D6662",
"Z  c #736C6B",
"A  c #726662",
"S  c #74776B",
"D  c #6E6E70",
"F  c #737274",
"G  c #7C7C7D",
"H  c #787777",
"J  c #821817",
"K  c #B21818",
"L  c #A30F0E",
"P  c #81302C",
"I  c #843B35",
"U  c #AC352E",
"Y  c #E21B1C",
"T  c #EA3833",
"R  c #FD3934",
"E  c #9B7E18",
"W  c #8A633A",
"Q  c #91683D",
"!  c #A36528",
"~  c #824D4B",
"^  c #855F43",
"/  c #88674B",
"(  c #80724F",
")  c #9B724E",
"_  c #85645A",
"`  c #8B645D",
"'  c #846A5C",
"]  c #9B7454",
"[  c #9B7657",
"{  c #A47C5C",
"}  c #A67857",
"|  c #B27B5C",
" . c #836B67",
".. c #8B6A64",
"X. c #866D69",
"o. c #8D6E69",
"O. c #846662",
"+. c #8A716D",
"@. c #86786B",
"#. c #8E7671",
"$. c #8F7873",
"%. c #927A74",
"&. c #957E78",
"*. c #95766C",
"=. c #AE7D62",
"-. c #7D8663",
";. c #9E8017",
":. c #AF8C14",
">. c #B5B62B",
",. c #BFBD31",
"<. c #C9B11B",
"1. c #CDAE17",
"2. c #DEC51F",
"3. c #C9CF2A",
"4. c #E2DA22",
"5. c #818865",
"6. c #93867F",
"7. c #959573",
"8. c #A68968",
"9. c #AD8C74",
"0. c #BAA07A",
"q. c #CBB74A",
"w. c #C48B6A",
"e. c #C48A67",
"r. c #C9916C",
"t. c #C99877",
"y. c #DCAA7D",
"u. c #C5A07E",
"i. c #BBC243",
"p. c #2F5A80",
"a. c #396A8E",
"s. c #367EAE",
"d. c #416A8E",
"f. c #42789F",
"g. c #7E7E80",
"h. c #487FA8",
"j. c #3584B7",
"k. c #7B8284",
"l. c #4082AB",
"z. c #4F9BA5",
"x. c #4593B1",
"c. c #4EA1D2",
"v. c #858587",
"b. c #868688",
"n. c #9E8781",
"m. c #8E8E90",
"M. c #939395",
"N. c #A48D86",
"B. c #A58A84",
"V. c #A7908A",
"C. c #A9928B",
"Z. c #AA9994",
"A. c #ADA795",
"S. c #AAAAAE",
"D. c #A9A7A5",
"F. c #BCB5AD",
"G. c #B7B1AA",
"H. c #AEAEB2",
"J. c #B6B6BA",
"K. c #DEB488",
"L. c #DCB085",
"P. c #D7B28D",
"I. c #E1AF87",
"U. c #E4BA94",
"Y. c #E9BC96",
"T. c #E8B98F",
"R. c #DFC59C",
"E. c #EBCC9A",
"W. c #F1D39F",
"Q. c #FCCB9E",
"!. c #FDCEA1",
"~. c #ECD5A5",
"^. c #FDDDAB",
"/. c #F1D8AB",
"(. c #F7DEB1",
"). c #FFE1AF",
"_. c #FFE2B0",
"`. c #BEC3CA",
"'. c #BFCBD7",
"]. c #B6D2E4",
"[. c #CBCACC",
"{. c #C6C5C7",
"}. c #D8D2CB",
"|. c #C8CDD5",
" X c #DFDEDB",
".X c #D5D5D4",
"XX c #E5D4C5",
"oX c #DFE6DE",
"OX c #E2E1DC",
"+X c #E4E4E2",
"@X c #F8F9FB",
/* pixels */
"                                                                ",
"                    O O t @       i t @ O                       ",
"                      - C k t @ d n.X.g t t O O O O             ",
"              O O @ - - k X.o.A n.%.z i +.X.k @ O               ",
"                O g C k i z B.&.#.N o.%.V.#.C z t t @           ",
"              @ - y z #.#.#.&.C.%.+.%.C.%.z k n.+.C g @         ",
"            - g  .o.$.C.C.%.#.%.%.%.%.&.$.#.B.#.z i -           ",
"          @ d y z $.$.%.&.%.#.&.C.%.+.N.&.%.$.C X.X.k -         ",
"        O O - k $.C.%.$.%.V.%.Z.Z.o.J ~ N.%.o.+.N +. .k @       ",
"            t +.V.%.$.$.V.$._ V.&.~ L J o.o.P B.%.l i C g @     ",
"          @ l +.#.N o.x $...P o...K Y K ~ ..o o.N.z k t @       ",
"          y  .+.z +...I ' _ U ....T R T U ` $ x #.z C y         ",
"        - N l z +.+.O.9._ P.U.%.R.!.!.T.t._ t...X._ k C t       ",
"        O - * l X.O.L.n * n ~.~.(._.~.( 1 v L.w.` =.f g @       ",
"        O   * g X._ U.F.e G.(.).).).(.G.t F.Y.e._ | 4 + O       ",
"            + = l ] U.}.- 6./.).).(./.n.- }.Y.} k 4 #   O       ",
"            @ g g ) T.XX> , E._.)._.E., $ }.R.) j d -           ",
"            @ d y 3 w.I.! ! ~._.)._.~.! ! I.e.< y d -           ",
"              u V F b e.y.E.^.^.^.^.^.E.y.e.b Z D u             ",
"            e D v.S.A.b ) r.L.K.K.K.L.r.] b D.H.v.F e           ",
"            e m.{.J.{.D.b h v 2 3 6 h v b D.|..X[.D.a           ",
"            u F M.M.m.{. X X[.A.5.A.[. X X{.M.{.H.m.e           ",
"          % j u s a 9 d.|.@XoXq.1.q.oX@X'.a.r F G D .           ",
"          4 ^ j ; X 9 p.h.].c.z.3.z.c.].h.q 9 Z V.%.&           ",
"        b.A.h : V M . a q h.j.x.i.x.j.f.p.a ; 9.8.[ <           ",
"      g.S.J.D.H D 0 0 w s N D -.7.k.Z N s w ; [ { ] %           ",
"      g.J.|.H.g.D . : p a.j.j.5.,.5.j.s.a.p < ^ ] j &           ",
"      g.H.[.b.H D ; ;.n S -.-.>.7 >.-.M c B E 7 2 h Z           ",
"        v.S.G F H V 8 <.2.4.3.5 u 5 <.1.:.:.7 .X+X.Xv.          ",
"          g.        Z / 8.0.8.3 V ; Q Q W < @.oX@X+Xv.          ",
"                      & / =.{ j     % % %   H M..XM.            ",
"                      % [ { { b                 b.              "
};
