/* XPM */
static char *_f5c5e00ad7646c4f620113ca1269766oTZ3gk6Zg6HWfwLw[] = {
/* columns rows colors chars-per-pixel */
"32 32 5 1 ",
"  c #ED1C24",
". c #FDD804",
"X c #FEE702",
"o c #FFF200",
"O c #FFF300",
/* pixels */
"                                ",
"                                ",
"                                ",
"                                ",
"              oo                ",
"             oooo               ",
"            oooooo              ",
"            oooooo              ",
"            oooooo              ",
"           oooooooo             ",
"           oooooooo             ",
"    oooooooooooooooooooooo      ",
"   oooooooooooooooooooooooo     ",
"   oooooooooooooooooooooooo     ",
"   oooooooooooooooooooooooo     ",
"    oooooooooooooooooooooo      ",
"     ooooooooooo.oooooooo       ",
"       oooooooXoooooooo         ",
"        oooooooooooooo          ",
"        oooooooooooooo          ",
"        oooooooooooooo          ",
"       oooooooooooooooo         ",
"       oooooooooooooooo         ",
"       oooooooooooooooo         ",
"       ooooooo  ooooooo         ",
"       ooooo      ooooo         ",
"        ooo        ooo          ",
"                                ",
"                                ",
"                                ",
"                                ",
"                                "
};
