/* XPM */
static char *_1131ba158684e8dff9eac735d5fed2abWejFmrSDxcY9IOQ[] = {
/* columns rows colors chars-per-pixel */
"32 32 189 2 ",
"   c None",
".  c #7B1414",
"X  c #4D3B39",
"o  c #513E3C",
"O  c #593D3B",
"+  c #693736",
"@  c #62521F",
"#  c #72611B",
"$  c #5A4A26",
"%  c #5D4E2C",
"&  c #56482B",
"*  c #54413E",
"=  c #564D30",
"-  c #5E5133",
";  c #5A543A",
":  c #6D4424",
">  c #65542D",
",  c #6A552E",
"<  c #675624",
"1  c #7D403E",
"2  c #6C5B3B",
"3  c #655634",
"4  c #735230",
"5  c #36556C",
"6  c #4B4A46",
"7  c #554341",
"8  c #5A4643",
"9  c #5D4947",
"0  c #5E4B48",
"q  c #5C5D56",
"w  c #6C4947",
"e  c #664E4C",
"r  c #7B4947",
"t  c #67504E",
"y  c #6A514E",
"u  c #775A46",
"i  c #645350",
"p  c #6E5553",
"a  c #745553",
"s  c #735853",
"d  c #7E5956",
"f  c #755C59",
"g  c #795F5C",
"h  c #7E5351",
"j  c #696249",
"k  c #746542",
"l  c #766648",
"z  c #7D704E",
"x  c #7B625D",
"c  c #726158",
"v  c #6C6753",
"b  c #6E6B6A",
"n  c #7D6562",
"m  c #7F6864",
"M  c #706F71",
"N  c #7D7D7E",
"B  c #797777",
"V  c #8B0505",
"C  c #810D0D",
"Z  c #891817",
"A  c #940909",
"S  c #A40000",
"D  c #AC0000",
"F  c #AA0C0C",
"G  c #A21918",
"H  c #AA1818",
"J  c #B51717",
"K  c #802A29",
"L  c #A62827",
"P  c #B22924",
"I  c #DD1D1E",
"U  c #D11718",
"Y  c #EB1F20",
"T  c #CD2020",
"R  c #D82828",
"E  c #EE2223",
"W  c #E72929",
"Q  c #F32223",
"!  c #FD2526",
"~  c #F43631",
"^  c #E73C38",
"/  c #88613B",
"(  c #94683E",
")  c #A5692C",
"_  c #D5403C",
"`  c #814D4B",
"'  c #835C44",
"]  c #835755",
"[  c #845855",
"{  c #9D734E",
"}  c #82655F",
"|  c #8E655E",
" . c #807350",
".. c #997456",
"X. c #A47B5B",
"o. c #836A66",
"O. c #8D6965",
"+. c #856D69",
"@. c #8D6D68",
"#. c #8C6461",
"$. c #946B66",
"%. c #956F6A",
"&. c #8A726D",
"*. c #847A67",
"=. c #97786B",
"-. c #8E7772",
";. c #847D7A",
":. c #8A7B73",
">. c #927A75",
",. c #9A7F75",
"<. c #967E79",
"1. c #907671",
"2. c #B28F18",
"3. c #B39017",
"4. c #BDA60D",
"5. c #A08121",
"6. c #BDB32A",
"7. c #CABA1A",
"8. c #DBBA36",
"9. c #B3865F",
"0. c #9B847C",
"q. c #96847B",
"w. c #AA8564",
"e. c #A48B7C",
"r. c #AD907F",
"t. c #B78B64",
"y. c #C98D69",
"u. c #C68968",
"i. c #CC926D",
"p. c #C29E7B",
"a. c #DA9773",
"s. c #C9A37D",
"d. c #E7CD46",
"f. c #477B8C",
"g. c #7E7E80",
"h. c #4386AC",
"j. c #6693A0",
"k. c #838385",
"l. c #87878A",
"z. c #9E8781",
"x. c #A48D86",
"c. c #A58E88",
"v. c #A7908A",
"b. c #AA928C",
"n. c #AF9891",
"m. c #ADA896",
"M. c #9E9EA0",
"N. c #A6A6AA",
"B. c #ABABAE",
"V. c #AFAFB2",
"C. c #B2B2B6",
"Z. c #BABABE",
"A. c #BBB9B6",
"S. c #B8B2AB",
"D. c #D7AB85",
"F. c #C8B48E",
"G. c #DCB086",
"H. c #DEB489",
"J. c #DBB391",
"K. c #E3B38B",
"L. c #E7B98F",
"P. c #E6BD93",
"I. c #DDC69C",
"U. c #E5CB9E",
"Y. c #EDCD9B",
"T. c #E6C597",
"R. c #EFD5A7",
"E. c #EDD5A8",
"W. c #F1D6A8",
"Q. c #FCDCAB",
"!. c #F4D6A8",
"~. c #F7DEB1",
"^. c #FEE3B5",
"/. c #BEBEC2",
"(. c #C7C6C8",
"). c #D0CFCE",
"_. c #DCD6CF",
"`. c #CFCFD3",
"'. c #D4D4D7",
"]. c #D9D9DC",
"[. c #D9D9D9",
"{. c #E8DCCB",
"}. c #DFE2D5",
"|. c #E2E1DD",
" X c #F3EFDB",
".X c #ECE3C8",
"XX c #CADDEB",
"oX c #E4E3E3",
"OX c #F7F7F9",
/* pixels */
"                                                                ",
"                    X X * o       o 7 o X                       ",
"                      o x p 7 o 8 a n i 8 7 7 X X X             ",
"              X X o 7 7 0 o.+.f &.+.g i z.&.o.e X               ",
"                o e +.x.g g 1.>.x.n -.x.>.g f 8 * o             ",
"              o 7 8 f >.v.1.1.b.<.&.1.>.>.&.&.+.o.t o           ",
"            * s o.+.-.1.>.-.>.>.1.1.-.-.v.<.-.g 0 o             ",
"          X t m n >.v.>.@.>.b.,.&.1.-.n >.v.-.+.+.p 7           ",
"        X X o 0 +.b.q.O.+ $.n.b.n -.b.-.d &.x d O.o.a *         ",
"            7 n x v.-.r G ` ,.v.] 1.b.%.L r #.Z G + n t o       ",
"          o t p 8 &.@.Z I J O.%.L @.>.$.R H + F U . O *         ",
"          o e * & x O.P ~ ^ | $.^ [ +.d R H . C F C w *         ",
"            o   > s.=.D.L.P.F.>.J.n f p h | a ` R F ` y o       ",
"                > G.P.U.z 3 z I.E.:.f g o.&.+.] W Y J w o       ",
"                > H.Q.^.S.6 S.^.R.<.,.D.I.,.>.$.W ! R + X       ",
"                > G.Q.W.z.7 _.^.R.e.D.t.U.,.1.$.J Q ! R +       ",
"                < y.Q.Y.: : .X^.R.r.T.9.s.} &.O.H Y ! E A       ",
"                $ { L.Y.) ) R.^.W.x.H.u.2 a +.g r J Q ! E       ",
"                  , y.K.Y.Y.Q.Q.Q.K.a.u.s a s p r H Y Q R V     ",
"                    , { y.i.G.H.G.i.u...y 7 e 7 e + T A V S     ",
"                      > 2 2 k k u l ;.;.t   *   o   V S D D     ",
"                      B m.(.).|.|._.'.(.B.k.          D D       ",
"                    @ 3.8.}.OXOX'.Z.'./.`.C.l.                  ",
"                      # 7.j.XX(.b k.N.M.'.'.V.k.                ",
"                      ; 6.f.h.v e.x.b M |.].Z.B.N               ",
"                      6 *.c ; ..X.w.-.B oX]./.C.k.B             ",
"                      6 q 5 = ..X...u v |.]./.V.B.N             ",
"                      < 5.j > ' ' u > *.oX].C.l.N.g.            ",
"                    $ ' ( 3.4.< > , 3.d. X'.C.g.N               ",
"                    $ u ' ( @ % &.=.t..X[.Z.B.g.                ",
"                      $ $ $     3  .q./.C.k.g.                  ",
"                                  $ ; N g.                      "
};
