/* XPM */
static char *f14e953cee6c48618c354c55d93b64d0sjgMkLJYCjCis83b[] = {
/* columns rows colors chars-per-pixel */
"32 32 18 1 ",
"  c black",
". c #3A0000",
"X c #660000",
"o c #000066",
"O c #903A00",
"+ c #B66600",
"@ c #DB903A",
"# c #FFB666",
"$ c #003A90",
"% c #0066B6",
"& c #3A90DB",
"* c #66B6FF",
"= c #FFDB90",
"- c #FFFFB6",
"; c #B6FFFF",
": c #FFFFDB",
"> c #DBFFFF",
", c white",
/* pixels */
",,,,,,,,,,,,,,,,,,,,,,,,,,,,,,,,",
",,,,,,,,,,,,,,,,,,,,,,,,,,,,,,,,",
",,,,,,,,,,,,,,,,,,,,,,,,,,,,,,,,",
",,,,,,,,,,,,,,,,,,,,,,,,,,,,,,,,",
",,,,,,,,,,,,,,,,,,,,,,,,,,,,,,,,",
",,,,,,,,,,,,,,,,,,,,,,,,,,,,,,,,",
",,,,,,,,,,,,,,,,,,,,,,,,,,,,,,,,",
",,,,,,,,,,,,,,,,,,,,,,,,,,,,,,,,",
",,,,,,,,,,,,,,,,,,,,,,,,,,,,,,,,",
",,,,,,,,,,,,,,,,,,,,,,,,,,,,,,,,",
",,,,,,,,,,,,=.   &,,,,,,,,,,,,,,",
",,,,,,,,,,,@ *,,:O&,,,,,,,,,,,,,",
",,,,,,,,,,=.*,,,,,,,,,,,,,,,,,,,",
",,,,,,,,,,+o;,,,,,,,,,,,,,,,,,,,",
",,,,,,,,,-X%,,,,,,,,,,,,,,,,,,,,",
",,,,,,,,,-X&,,,,,,,,,,,,,,,,,,,,",
",,,,,,,,,-X&,,,,,,,,,,,,,,,,,,,,",
",,,,,,,,,-X%,,,,,,,,,,,,,,,,,,,,",
",,,,,,,,,:O$>,,,,,,,,,,,,,,,,,,,",
",,,,,,,,,,# *,,,,,,,,,,,,,,,,,,,",
",,,,,,,,,,,+ *,,,+&,,,,,,,,,,,,,",
",,,,,,,,,,,,#    &,,,,,,,,,,,,,,",
",,,,,,,,,,,,,,,,,,,,,,,,,,,,,,,,",
",,,,,,,,,,,,,,,,,,,,,,,,,,,,,,,,",
",,,,,,,,,,,,,,,,,,,,,,,,,,,,,,,,",
",,,,,,,,,,,,,,,,,,,,,,,,,,,,,,,,",
",,,,,,,,,,,,,,,,,,,,,,,,,,,,,,,,",
",,,,,,,,,,,,,,,,,,,,,,,,,,,,,,,,",
",,,,,,,,,,,,,,,,,,,,,,,,,,,,,,,,",
",,,,,,,,,,,,,,,,,,,,,,,,,,,,,,,,",
",,,,,,,,,,,,,,,,,,,,,,,,,,,,,,,,",
",,,,,,,,,,,,,,,,,,,,,,,,,,,,,,,,"
};
