/* XPM */
static char *df8dc5ca1c854c4da9b2bb8cb0d6edd2qq4i13CAU3yfPlSg[] = {
/* columns rows colors chars-per-pixel */
"32 32 194 2 ",
"   c None",
".  c #760000",
"X  c #7C0202",
"o  c #7B1414",
"O  c #5A2F2D",
"+  c #4D3B39",
"@  c #513E3C",
"#  c #593D3B",
"$  c #673635",
"%  c #65561E",
"&  c #72611B",
"*  c #594A26",
"=  c #5C4D29",
"-  c #544726",
";  c #54413E",
":  c #5B4F34",
">  c #5D5335",
",  c #684A27",
"<  c #6B5A20",
"1  c #66552F",
"2  c #6A552E",
"3  c #625323",
"4  c #7D403E",
"5  c #695937",
"6  c #73522F",
"7  c #4C4A46",
"8  c #554341",
"9  c #5A4643",
"0  c #5C4B48",
"q  c #5D4946",
"w  c #5D5741",
"e  c #664E4C",
"r  c #6C4947",
"t  c #7B4948",
"y  c #69514F",
"u  c #67504E",
"i  c #755948",
"p  c #6E5653",
"a  c #655452",
"s  c #745452",
"d  c #725955",
"f  c #755C5A",
"g  c #7C5A57",
"h  c #746542",
"j  c #766648",
"k  c #7D704E",
"l  c #646258",
"z  c #7B625D",
"x  c #726C55",
"c  c #7F7350",
"v  c #576772",
"b  c #756663",
"n  c #7D6562",
"m  c #716B6D",
"M  c #747E6C",
"N  c #747867",
"B  c #757577",
"V  c #767678",
"C  c #7B7B7E",
"Z  c #7C7876",
"A  c #810808",
"S  c #861B1A",
"D  c #9D1111",
"F  c #9B0606",
"G  c #A50000",
"H  c #AB0000",
"J  c #AB0C0C",
"K  c #A71817",
"L  c #B41818",
"P  c #BB0809",
"I  c #802928",
"U  c #A62827",
"Y  c #B22A24",
"T  c #D6191B",
"R  c #E21C1D",
"E  c #EB1F20",
"W  c #D82828",
"Q  c #E82727",
"!  c #F92324",
"~  c #EE3935",
"^  c #84643B",
"/  c #88613A",
"(  c #A5692C",
")  c #D4403C",
"_  c #824D4B",
"`  c #855E44",
"'  c #835755",
"]  c #85604C",
"[  c #946E41",
"{  c #9C734C",
"}  c #82655F",
"|  c #8E655E",
" . c #977252",
".. c #9C7455",
"X. c #9C785A",
"o. c #A47B5C",
"O. c #826A66",
"+. c #8D6965",
"@. c #856D69",
"#. c #8C6A66",
"$. c #936A66",
"%. c #976D69",
"&. c #8A726D",
"*. c #817C69",
"=. c #997867",
"-. c #8E7672",
";. c #857E7C",
":. c #927A75",
">. c #967E79",
",. c #967C73",
"<. c #B08E16",
"1. c #B28D15",
"2. c #BEB02A",
"3. c #D2BA13",
"4. c #CCBA19",
"5. c #DBBB35",
"6. c #DAD218",
"7. c #D7CD26",
"8. c #B3865F",
"9. c #808561",
"0. c #88827E",
"q. c #98837B",
"w. c #A58B7D",
"e. c #AC907F",
"r. c #B69467",
"t. c #C78A68",
"y. c #CC926D",
"u. c #C29E7B",
"i. c #DA9773",
"p. c #C9A37D",
"a. c #3C6A8A",
"s. c #497B8B",
"d. c #7E7E80",
"f. c #817F80",
"g. c #3980AF",
"h. c #3982B2",
"j. c #3484B7",
"k. c #66939F",
"l. c #458FBE",
"z. c #4B94C3",
"x. c #828284",
"c. c #8A898A",
"v. c #858588",
"b. c #9E8781",
"n. c #8E8E91",
"m. c #959496",
"M. c #A28C84",
"N. c #A58D88",
"B. c #A7908A",
"V. c #AA928C",
"C. c #AF9892",
"Z. c #ADA896",
"A. c #9F9FA2",
"S. c #A6A6A7",
"D. c #ACACB0",
"F. c #B2B2B5",
"G. c #B5B5B9",
"H. c #B8B8BB",
"J. c #B8B1AA",
"K. c #D7AB85",
"L. c #DCB086",
"P. c #DEB489",
"I. c #D1B490",
"U. c #E3B38B",
"Y. c #E7B98F",
"T. c #E6BD93",
"R. c #C0BAB1",
"E. c #DDC69C",
"W. c #ECCD9B",
"Q. c #E5C89A",
"!. c #EED5A8",
"~. c #FCDCAB",
"^. c #F3D6A8",
"/. c #F7DEB1",
"(. c #FEE3B5",
"). c #BFBFC2",
"_. c #BDD2E1",
"`. c #C8C8C9",
"'. c #D0CFCE",
"]. c #DBD5CF",
"[. c #CECED2",
"{. c #D2D2D6",
"}. c #DADADD",
"|. c #E0DFDB",
" X c #E7DBCB",
".X c #DFE2D4",
"XX c #E3E2DD",
"oX c #D8DCE1",
"OX c #C8DDEC",
"+X c #EBEBEC",
"@X c #E1E1E2",
"#X c #F2F2F3",
"$X c #F6F7F8",
"%X c #F9F9FB",
/* pixels */
"                                                                ",
"                        + @ ; @       @ 8 + +                   ",
"              + + @ 8 8 9 u n d 8 @ 8 d z @                     ",
"                + y O.&.b.a f @.&.f @.O.q 9 8 @ + +             ",
"              @ @ 9 f g :.M.&.O.N.>.&.f z b.@.e +               ",
"            @ y O.@.&.&.:.:.-.-.>.B.:.-.N.>.f 9 8 @             ",
"              ; q f -.>.N.-.-.-.-.:.:.:.:.-.-.&.O.d ;           ",
"            8 p @.&.-.N.-.n -.-.&.>.V.:.@.,.N.>.z n y @         ",
"          ; d @.#.f f &.g &.V.-.z V.C.&.o #.q.V.&.0 @ + +       ",
"        @ y n $ K o O._ U %.V.,.' B.>._ U t -.B.f n 8           ",
"          @ # o T K I U W %.-.+.U =.#.L T S #.&.9 p a @         ",
"          8 r A H A o L W ' @.' ) $.$.~ ~ Y +.z = @ e @         ",
"        @ y t J W t s | s s d O.I.,.I.T.T.K.=.u.1   @           ",
"        @ r L Q Q ' &.&.} g d :.^.E.k 1 c Q.T.K.1               ",
"        + $ E ! Q %.-.q.E.K.,.q.!.(.H.7 J./.~.U.1               ",
"        O K R ! L %.-.>.Q.r.K.w.!.(.].; b.^.~.L.1               ",
"        A H P R K +.&.} u.8.Q.w.!.(. X, , W.~.y.,               ",
"        G H H J t f @.d 6 t.L.e.!.(.^.( ( W.U.{ =               ",
"      X G H H D t p d p g t.i.U.~.~.~.W.W.U.t.1                 ",
"      . X X F $ e 8 e 9 y o.t.y.p.Y.p.y.y.{ 1                   ",
"      . . . X   @   0 m a Z ;.j [ h h 5 5 >                     ",
"        . .         x.D.D.F.'.|.XXXX'.`.Z.*.                    ",
"                f.n.`.`.C.F.[.[.oX$X$X.X5.<.%                   ",
"            V d.).oX[.c.k.m.A.v z._.OXk.4.&                     ",
"          V x.G.+X}.D.f.M.d w a.j.l.l.g.2.>                     ",
"        B C F.}.#XG.x.o.X.> i z b z x x 0.7                     ",
"        B v.{.$X+Xc.X.o.` : a.h.h.h.j.a.l ;                     ",
"      B C F.#X%X{.f.` ` 2 x N M M M M 9.2.3                     ",
"      B C F.+X$XG.V = 3 1.1.3.3.6.6.6.7.r.5                     ",
"        B x.H.@Xc.B   * / / % % % ^ / { o...=                   ",
"          B v.).v.      * * -     = i { .. .=                   ",
"            B x.                    * 3 3 =                     "
};
