/* XPM */
static char *_e37adf7bdf844e3e1e24de08a36cb14ZVZ1j5K1PmFsmqWY[] = {
/* columns rows colors chars-per-pixel */
"32 32 165 2 ",
"   c None",
".  c #760C0C",
"X  c #7F0808",
"o  c #760303",
"O  c #7A1413",
"+  c #741D1D",
"@  c #771A19",
"#  c #4D3B39",
"$  c #513E3C",
"%  c #772322",
"&  c #763F3D",
"*  c #594926",
"=  c #514629",
"-  c #574C2B",
";  c #4E403E",
":  c #5B4E30",
">  c #54413F",
",  c #72403F",
"<  c #615030",
"1  c #61583B",
"2  c #4B4646",
"3  c #4A4949",
"4  c #4A4946",
"5  c #554341",
"6  c #5A4644",
"7  c #5C4946",
"8  c #524F4B",
"9  c #5F4B49",
"0  c #514F50",
"q  c #634D4B",
"w  c #6C4B4A",
"e  c #714544",
"r  c #7D4544",
"t  c #734947",
"y  c #744D4B",
"u  c #7B4D4C",
"i  c #63504E",
"p  c #69514F",
"a  c #775946",
"s  c #72504E",
"d  c #7C504E",
"f  c #7D5E4B",
"g  c #6D5452",
"h  c #745553",
"j  c #7A5553",
"k  c #725956",
"l  c #785855",
"z  c #765D5A",
"x  c #785F5C",
"c  c #6D605F",
"v  c #7B625F",
"b  c #6E6C6E",
"n  c #7D6561",
"m  c #6F6F71",
"M  c #737273",
"N  c #777779",
"B  c #7C7C7D",
"V  c #7B7573",
"C  c #840101",
"Z  c #8C0405",
"A  c #900707",
"S  c #9D0101",
"D  c #9E0B0B",
"F  c #930909",
"G  c #801515",
"H  c #981313",
"J  c #AB0404",
"K  c #A90F0E",
"L  c #A30909",
"P  c #B30606",
"I  c #AD1313",
"U  c #A41817",
"Y  c #AB1C1B",
"T  c #B31212",
"R  c #803E3C",
"E  c #D21718",
"W  c #E21B1C",
"Q  c #F41E1F",
"!  c #C92727",
"~  c #D62727",
"^  c #DA2E2E",
"/  c #ED2021",
"(  c #E32728",
")  c #E32829",
"_  c #EC292A",
"`  c #F42223",
"'  c #FE2425",
"]  c #E53839",
"[  c #F33536",
"{  c #F83738",
"}  c #FB393A",
"|  c #894C4B",
" . c #874746",
".. c #94765F",
"X. c #826A66",
"o. c #8B6A66",
"O. c #866E69",
"+. c #896F6B",
"@. c #866461",
"#. c #946A66",
"$. c #8A726D",
"%. c #8B7165",
"&. c #9F7D62",
"*. c #8E7671",
"=. c #817D7B",
"-. c #907671",
";. c #927A74",
":. c #967E79",
">. c #C34242",
",. c #F64749",
"<. c #F64F4F",
"1. c #FA4B4C",
"2. c #FE4F50",
"3. c #A7846A",
"4. c #7E7E80",
"5. c #848385",
"6. c #8B8686",
"7. c #868689",
"8. c #87888B",
"9. c #8B898B",
"0. c #9D8681",
"q. c #999597",
"w. c #A28B85",
"e. c #A68F89",
"r. c #A7908A",
"t. c #A8908A",
"y. c #AB948E",
"u. c #AF9891",
"i. c #AE9699",
"p. c #B29B94",
"a. c #A3A2A5",
"s. c #A9A7AA",
"d. c #AAA9AC",
"f. c #A5A5A8",
"g. c #B0AFAF",
"h. c #AEADB0",
"j. c #B1AFB3",
"k. c #B2B1B4",
"l. c #B6B6B9",
"z. c #BABBBF",
"x. c #CDB5B8",
"c. c #D2BBBE",
"v. c #BEBEC2",
"b. c #E6BFC2",
"n. c #C1C1C5",
"m. c #CACACE",
"M. c #C4C4C8",
"N. c #DCC5C9",
"B. c #DFC8CC",
"V. c #CDCDD1",
"C. c #CFD0D3",
"Z. c #D2D2D5",
"A. c #D5D6DA",
"S. c #DADADD",
"D. c #E3CED1",
"F. c #F4DDDE",
"G. c #FBDFDF",
"H. c #DEDEE1",
"J. c #E2E1E4",
"K. c #E6E6E9",
"L. c #E9E9EA",
"P. c #FCE3E3",
"I. c #F4E1E1",
"U. c #F5F5F6",
"Y. c #FDFDFD",
/* pixels */
"                                                                ",
"                        # $ > 6       > > # #                   ",
"              # # # > > > p O.0.i > 6 k n >                     ",
"                # > g O.O.q z *.0.v 0.$.g > 5 $ # #             ",
"            $ > 5 h X.*.t.;.$.v *.*.;.v 9 g X.q $               ",
"          $ g n O.O.q z ;.t.;.$.$.$.;.e.e.;.z 6 > $             ",
"            > 7 z $.$.$.;.:.;.$.v v $.;.:.t.*.O.X.p $           ",
"          > g O.O.n $.;.:.t.;.*.*.O.v *.*.;.;.*.z 6 q $         ",
"        > k X.$.X.w.*.;.u.u.;.;.y.:.*.r.:.*.;.t.-.g > # #       ",
"      > p n 9 z w.;.v *.y.:.$.:.p.t.n ;.y.;.*.;.t.$.5           ",
"        $ 5 g k -.$.z $.;.$.v $.y.;.z *.t.n $.v *.*.k $         ",
"          6 n z O.h k $.$.s y j -.$.j +.*.z $.+.l O.X.6         ",
"        5 n k h t + h O.y O L Y #.o.% y X.h $.o.% s k v >       ",
"        $ p 5 w + . e y G L A ~ #.u . O , + y @.% w > > #       ",
"        # # $ g e @ + & K E F !  .H C S X o + s s g $   #       ",
"        #   $ g h w e + L P J A D Z J J D O e g g g $           ",
"            $ g p > g y R T W U & T W T r w g 5 g g $           ",
"            $ q $ $ g s Y / _  .d ) Q I y k g # $ q $           ",
"              ; 2 5 i d ) ' ( u | _ ` Y y g w 5 2 #             ",
"              0 M b p | _ ` U & ^ ' _ r 9 i i M b 3             ",
"            3 B a.5.i.] ' _ u i.{ ' _ j q.b a.h.N 3             ",
"            3 M 5.8.c.} ' { c.N.} ' [ x.z.d.Z.C.7.3 :           ",
"            = 8 N k.N.{ ' ,.P.P.} / [ B.A.n.S.U.m.7.*.<         ",
"            * a 4.C.F.2.,.b.Y.P.2.! >.F.U.S.H.U.U.V.6.f *       ",
"              : B Z.U.I.D.U.Y.Y.P.F.I.Y.Y.Y.U.J.Y.U.m.=.-       ",
"                4.V.J.U.J.Y.Y.Y.Y.Y.Y.Y.Y.Y.Y.Y.Y.Y.U.g.1       ",
"                4.l.A.U.H.U.Y.Y.Y.Y.Y.Y.Y.Y.Y.Y.Y.Y.Y.Z.B       ",
"                4.k.Z.S.A.H.Y.Y.Y.Y.Y.Y.Y.U.J.U.J.U.Y.L.7.      ",
"                4.k.v.Z.M.S.U.Y.J.U.Y.Y.U.S.M.L.S.S.L.S.7.      ",
"                4.d.l.V.l.A.U.U.H.J.U.U.H.Z.l.n.m.l.9.7.        ",
"                  4.7.d.9.k.Z.J.Z.A.S.S.V.k.8.f.8.B             ",
"                      $...&.3.%.6.d.h.d.5.B N 4.                "
};
